<?xml version="1.0" encoding="utf-8"?>
<svg id="Layer_1" data-name="Layer 1" xmlns="http://www.w3.org/2000/svg"  width="234.49px" height="43px"  viewBox="0 0 1030.56 192.33"><defs><style>.cls-1{fill:#fff;}.cls-2{stroke:#1d1d1b;stroke-miterlimit:10;stroke-width:0.3px;}</style></defs><path d="M331.17,170.11v46.16c0,19-7.79,27.8-24.51,27.8-19.37,0-23.44-15.12-23.44-27.8V170.11h-5.65v46.16c0,21.77,9.79,32.82,29.09,32.82,20,0,30.16-11.05,30.16-32.82V170.11h-5.65Z" transform="translate(-77.84 -74.99)"/><path d="M373.4,190.16c-8.67,0-16.19,4.66-19.39,11.72V191.44h-5v55.84h5V217.11c0-13.65,7.57-22.47,19.27-22.47,15.11,0,15.11,13.14,15.11,17.46v35.18h5V212.85C393.4,206.64,393.4,190.16,373.4,190.16Z" transform="translate(-77.84 -74.99)"/><polygon points="327.96 116.45 327.96 172.29 332.97 172.29 332.97 116.45 332.5 116.45 327.96 116.45"/><polygon points="327.96 99.37 327.96 106.9 332.97 106.9 332.97 99.37 332.5 99.37 327.96 99.37"/><path d="M460.5,191.44s-17.73,47.89-18.36,49.61l-19.63-49.61h-5.73l22.48,55.84h5.67L466,191.44H460.5Z" transform="translate(-77.84 -74.99)"/><path d="M493.28,190.16a22.51,22.51,0,0,0-16.42,6.6c-5.39,5.48-8.41,14.06-8.28,23.56-.13,8.76,2.58,16.42,7.62,21.52,4.33,4.39,10.23,6.71,17.08,6.71,13.42,0,22-7.2,24.17-20.25l.1-.56h-5l-.07.39c-1.9,10-9.07,15.94-19.19,15.94a17.72,17.72,0,0,1-13.14-5.27c-4.18-4.25-6.56-10.9-6.56-18.32v-.11h44.29l0-.46c0-.7.05-1.4.05-2.09,0-8.54-2.54-15.89-7.24-20.81C506.36,192.47,500.51,190.16,493.28,190.16Zm0,4.48c12.42,0,19.16,10.61,19.55,21.25H473.66C474.69,205.25,481.66,194.64,493.28,194.64Z" transform="translate(-77.84 -74.99)"/><path d="M531.87,202.52V191.44h-5v55.84h5V216.79c.44-8.36,2.23-11.52,6.07-15.47a18.23,18.23,0,0,1,14.76-5.2l.53.07v-5l-.45,0C543.62,190.72,534.85,195.66,531.87,202.52Z" transform="translate(-77.84 -74.99)"/><path d="M579.64,216.33,578,216c-8.32-1.77-16.18-3.43-16.18-11.24,0-7.45,7.92-10.09,15.33-10.09,5.83,0,15.62,1.75,15.75,13.51v.47h5v-.47c0-11.6-7.37-18-20.75-18-4.77,0-20.34,1.06-20.34,14.57,0,12.15,11.14,14.41,19.28,16.05l1.44.3c8.73,1.75,17,3.41,17,11.84,0,10.07-11.84,11.15-16.93,11.15-10.14,0-17.08-6.11-17.67-15.56l0-.45h-5v.49c.31,12.34,9,20,22.68,20,5.15,0,21.94-1.13,21.94-15.63C599.46,221,590.48,218.35,579.64,216.33Z" transform="translate(-77.84 -74.99)"/><polygon points="531.88 116.45 531.88 172.29 536.89 172.29 536.89 116.45 536.41 116.45 531.88 116.45"/><path d="M636.29,191.44V174.36h-5v17.08H621.14v4.48h10.14v37.85c0,.32,0,.64,0,.95,0,4.3,1.06,7.42,3.22,9.52,3.33,3.22,8.8,3.31,13.21,3l.45,0v-4.45h-.49c-4.53.12-7.51-.15-9.31-1.89-1.4-1.36-2.05-3.63-2.05-7.14V195.92h13.93l21.28,50.57c-2.47,7-4,11-5.49,12.56-2.59,2.6-5.18,3.39-11.08,3.39h-.49v4.47h.49c6.1,0,10-.17,13.1-2.54,2.36-1.84,4.13-5.75,6.55-11.52,0,0,23.74-61.41,23.74-61.41h-5.61S675,238.51,674.23,240.68c-.87-2.15-20.06-49.24-20.06-49.24Z" transform="translate(-77.84 -74.99)"/><polygon points="531.87 99.37 531.87 106.9 536.89 106.9 536.89 99.37 536.41 99.37 531.87 99.37"/><path d="M404.3,157.55c-22.19-.45-40.84-17.49-40.27-41C364.6,98,379.49,77,406.58,77.76c18.86.35,40,14.52,39.46,40.58S423.38,158.13,404.3,157.55Zm.79-75c-16.92,0-28.71,12.46-28.71,33.38,0,25,14.88,36.35,28.94,36.35,16.92,0,28.15-13,28.15-33.61C433.69,96.62,422.24,82.56,405.09,82.56Z" transform="translate(-77.84 -74.99)"/><path d="M730.32,79.87v-1.1H708.15v1.1c4.39.29,5.6,1.15,5.6,7.39v27.06H674V87.26c0-6.24,1.21-7.1,5.6-7.39v-1.1H657.39v1.1c4.38.29,5.6,1.15,5.6,7.39V148c0,6.24-1.22,7.12-5.6,7.4v1.09h22.17v-1.09c-4.39-.28-5.6-1.16-5.6-7.4V119h39.79v29c0,6.24-1.21,7.12-5.6,7.4v1.09h22.17v-1.09c-4.38-.28-5.6-1.16-5.6-7.4V87.26C724.72,81,725.94,80.16,730.32,79.87Z" transform="translate(-77.84 -74.99)"/><path d="M451.91,78.77v1.1c4.27.23,5.49.7,5.49,5.19v63c0,6.24-1.21,7.12-5.6,7.4v1.09h16.74v-1.09c-4.39-.28-5.61-1.16-5.61-7.4V91.46c0,1,43.29,53.7,52.63,65.05h1.79V85.06c0-4.49,1.21-5,5.48-5.19v-1.1H506.38v1.1c4.27.23,5.49.7,5.49,5.19v49.39L466.71,78.77Z" transform="translate(-77.84 -74.99)"/><path d="M561,78.77h-1.55C555.5,88.11,537.32,131.16,531,146c-1.1,2.55-2.86,6.67-4.17,8.11a3.86,3.86,0,0,1-2.95,1.27v1.09h14.78v-1.09c-1.17,0-3.71,0-3.89-2.2a6.86,6.86,0,0,1,.42-2.3c.46-1.38,3.44-8.92,7.21-17.5H572c2.91,7.24,5.58,13.42,6.81,16.16h0a13.1,13.1,0,0,1,1.1,3.64c0,2.15-1.9,2.2-4,2.2v1.09h20.66v-1.09c-2.54-.17-3.35-.81-5.2-5ZM544.32,128.5c5-12.35,12.81-32,12.81-32s7,17.6,12.92,32Z" transform="translate(-77.84 -74.99)"/><path d="M273.56,78.77v1.1c2.39.13,3.8.36,4.6,1.3a6.05,6.05,0,0,1,.61,1.15h0a4.82,4.82,0,0,1,.22,1.25c0,.44.06.93.06,1.48v63c0,6.24-1.22,7.12-5.61,7.4v1.09H290v-1.09c-4.39-.28-5.6-1.16-5.6-7.4V94.1c0-1-.23-3-.23-3l1,3,26.85,62.12h1.63l27.42-64,.8-2.63a15.66,15.66,0,0,0-.23,2.41v56c0,6.24-1.2,7.12-5.59,7.4v1.09h22.18v-1.09c-4.4-.28-5.61-1.16-5.61-7.4v-63c0-4.49,1.21-5,5.49-5.19v-1.1H340.9l-24.81,58.65L290.94,78.77Z" transform="translate(-77.84 -74.99)"/><path d="M600.42,151.28c5.21,3.14,12.94,6.43,21.14,6.4H622c12.14-.18,24.92-9.16,24.92-23.31,0-15.32-10.74-18.86-21.6-24.47-11-5.37-15.55-8.12-15.55-15.32,0-4.91,3-12.11,12.69-12.11a17.4,17.4,0,0,1,8.16,2C638.51,88.86,638.9,95,639.92,99h1.14l-.67-17.31a49.86,49.86,0,0,0-11.76-3.44,35.57,35.57,0,0,0-4.55-.31c-10.86,0-23.66,6.51-23.66,20.23,0,9.37,5.6,15.21,16.69,20.69s19.31,7.78,19.31,18.75c0,5.61-3.19,15.31-15.54,15.31a18.21,18.21,0,0,1-12-4.29c-7.32-6.92-7.15-12.4-7.71-14.45h-1.14l.35,17.14" transform="translate(-77.84 -74.99)"/><path d="M98.85,138.28a104.39,104.39,0,0,0,15.07,53.22,87.33,87.33,0,0,0,43.26,36.25,87,87,0,0,0,43.34-36.25,104.1,104.1,0,0,0,15.06-53.22V78.45H98.85Z" transform="translate(-77.84 -74.99)"/><path d="M222.56,166.41l-.56,1.93c-.69,2.3-1.45,4.54-2.24,6.68l-5-4.52-.62,1.82a105.72,105.72,0,0,1-10.39,22.16c-11,17.55-26.45,30.36-44.67,37l-1.87.67c-.52-.21-1.81-.67-1.81-.67-18.21-6.67-33.68-19.46-44.64-37a102.21,102.21,0,0,1-10.4-22.16l-.61-1.82-1.46,1.28L94.7,175c-.78-2.14-1.56-4.35-2.25-6.65l-.56-1.92-1.48,1.34L77.84,179.1l.23.77a146,146,0,0,0,11.54,26l.73,1.37,5.23-4.67c.2.35.36.73.58,1.06,13,20.82,31.46,36,53.33,44l7.7,2.83,7.8-2.83c21.87-8,40.26-23.2,53.29-44,.21-.34.41-.73.61-1.07l5.15,4.66.78-1.37a141.89,141.89,0,0,0,11.54-26l.23-.76Z" transform="translate(-77.84 -74.99)"/><path class="cls-1" d="M205.78,104.74a5.15,5.15,0,0,1-.55,2.32,3.65,3.65,0,0,1-.85,1.17,5.56,5.56,0,0,0-1.39.86,4.16,4.16,0,0,1-.07-.58,4.68,4.68,0,0,1,.58-2.33,5.22,5.22,0,0,1,2.19-2.15A5.74,5.74,0,0,1,205.78,104.74Z" transform="translate(-77.84 -74.99)"/><path class="cls-1" d="M196.29,120.56h0a4.9,4.9,0,0,1,3,.53,4.57,4.57,0,0,1-2.66,1.43,5.46,5.46,0,0,1-3.08-.52A5.27,5.27,0,0,1,196.29,120.56Z" transform="translate(-77.84 -74.99)"/><path class="cls-1" d="M191.27,122.13c0-.08,0-.15,0-.23a4.94,4.94,0,0,1,.75-2.67h0a4.9,4.9,0,0,1,2.26-1.86,1.35,1.35,0,0,1,0,.28,4.78,4.78,0,0,1-.75,2.59A4.34,4.34,0,0,1,191.27,122.13Z" transform="translate(-77.84 -74.99)"/><path class="cls-1" d="M195.14,116.71a5.51,5.51,0,0,1,1.46-1.6,6,6,0,0,1,.29,1.38,4.79,4.79,0,0,1-.25,1.55,4.56,4.56,0,0,1-1.24,1.81,5.93,5.93,0,0,0-.63.22.7.7,0,0,1,0-.14A6.05,6.05,0,0,0,195.14,116.71Z" transform="translate(-77.84 -74.99)"/><path class="cls-1" d="M197.33,114.23a5.39,5.39,0,0,1,1.07-1.92,4.93,4.93,0,0,1,.72,2.46c0,.13,0,.26,0,.4a4.4,4.4,0,0,1-.74,2,4.28,4.28,0,0,0-.62.38s0-.08-.05-.12A6,6,0,0,0,197.33,114.23Z" transform="translate(-77.84 -74.99)"/><path class="cls-1" d="M198.87,111.26a6.81,6.81,0,0,1,.5-2.07,4.87,4.87,0,0,1,1.4,2.61c0,.23,0,.45,0,.66a4.29,4.29,0,0,1-.29,1.49,6.15,6.15,0,0,0-.49.53.51.51,0,0,1-.09-.13A7.06,7.06,0,0,0,198.87,111.26Z" transform="translate(-77.84 -74.99)"/><path class="cls-1" d="M199.6,108.05a4.86,4.86,0,0,1-.11-1,5.3,5.3,0,0,1,.2-1.12,5,5,0,0,1,2,2.19A5.07,5.07,0,0,1,202,110a2.66,2.66,0,0,1,0,.28,4.46,4.46,0,0,0-.4.66.94.94,0,0,1-.12-.09A6.37,6.37,0,0,0,199.6,108.05Z" transform="translate(-77.84 -74.99)"/><path class="cls-1" d="M199.66,104.81a4.92,4.92,0,0,1-.46-2.17,5.42,5.42,0,0,1,2.43,1.72,4.6,4.6,0,0,1,.81,2,6.59,6.59,0,0,0-.22.72l-.15,0A6.17,6.17,0,0,0,199.66,104.81Z" transform="translate(-77.84 -74.99)"/><path class="cls-1" d="M202,103.21l-.19,0a6.41,6.41,0,0,0-2.75-1.62,5.22,5.22,0,0,1-.93-1.94,4.71,4.71,0,0,1,2.67,1.1,4.47,4.47,0,0,1,1.24,1.81A5.07,5.07,0,0,0,202,103.21Z" transform="translate(-77.84 -74.99)"/><path class="cls-1" d="M200.68,99.56a5.94,5.94,0,0,0-3.12-1,5.78,5.78,0,0,1-1.43-1.73,5.23,5.23,0,0,1,3,.5,4.81,4.81,0,0,1,1.55,1.44,6.6,6.6,0,0,0,.13.73Z" transform="translate(-77.84 -74.99)"/><path class="cls-1" d="M198.67,119.85a6.1,6.1,0,0,0-1.57-.24,5.8,5.8,0,0,1,2.16-1.9h0a5.26,5.26,0,0,1,3.1-.18,4.88,4.88,0,0,1-2.33,2A3.93,3.93,0,0,1,198.67,119.85Z" transform="translate(-77.84 -74.99)"/><path class="cls-1" d="M201.47,116.46a5.85,5.85,0,0,0-1.62.13,5.22,5.22,0,0,1,1.75-2.37h0a5.25,5.25,0,0,1,3-.94,5.18,5.18,0,0,1-1.8,2.58A5.41,5.41,0,0,1,201.47,116.46Z" transform="translate(-77.84 -74.99)"/><path class="cls-1" d="M204.54,111.61a4.35,4.35,0,0,1-1.15.94,6.48,6.48,0,0,0-1.49.47,5.38,5.38,0,0,1,1.11-2.75,5.68,5.68,0,0,1,2.6-1.51A5.07,5.07,0,0,1,204.54,111.61Z" transform="translate(-77.84 -74.99)"/><path class="cls-1" d="M205.07,101.35a5,5,0,0,1-.14,1.16,3.76,3.76,0,0,1-.6,1.34,5.81,5.81,0,0,0-1.14,1.13,5.11,5.11,0,0,1-.37-1.78A4.77,4.77,0,0,1,203,102a5.35,5.35,0,0,1,1.7-2.6A5.84,5.84,0,0,1,205.07,101.35Z" transform="translate(-77.84 -74.99)"/><path class="cls-1" d="M201.49,98.1a5.37,5.37,0,0,1,1-2.89,5.26,5.26,0,0,1,1,2.91v0a4.37,4.37,0,0,1-.27,1.43,6.75,6.75,0,0,0-.83,1.34,5,5,0,0,1-.92-2.77Z" transform="translate(-77.84 -74.99)"/><path class="cls-1" d="M199.42,91.6a5.12,5.12,0,0,1,1.68,2.61,5.59,5.59,0,0,1,.13,1.07,3,3,0,0,1,0,.31,6.3,6.3,0,0,0-.52,1.59,4.83,4.83,0,0,1-1.5-2.49,6.94,6.94,0,0,1-.1-1.11A6.1,6.1,0,0,1,199.42,91.6Z" transform="translate(-77.84 -74.99)"/><path class="cls-1" d="M198.85,96.21l-.15,0a6.26,6.26,0,0,0-3.31-.2,5.93,5.93,0,0,1-1.76-1.33,5.21,5.21,0,0,1,3-.22,4.57,4.57,0,0,1,1.91,1C198.64,95.76,198.75,96,198.85,96.21Z" transform="translate(-77.84 -74.99)"/><path class="cls-1" d="M195.67,88.81a4.72,4.72,0,0,1,2.67,3.47,7.12,7.12,0,0,0-.14,1.66,5.53,5.53,0,0,1-2.13-2.08,5.16,5.16,0,0,1-.5-2.26A6.55,6.55,0,0,1,195.67,88.81Z" transform="translate(-77.84 -74.99)"/><path class="cls-1" d="M194.54,90.81l.31.28a5.64,5.64,0,0,0,.42,1.15h0a6,6,0,0,0,.73,1.07,5.18,5.18,0,0,1-2.64-.89,5.44,5.44,0,0,1-1.74-2.54A5,5,0,0,1,194.54,90.81Z" transform="translate(-77.84 -74.99)"/><path class="cls-1" d="M180.68,113.12a1.14,1.14,0,0,1,1.1,1.16,1,1,0,0,1-.13.47c-.1.21-.17.45.27.45h1.57V95.37a19.92,19.92,0,0,1,1.77-9.08l.45-.88.45.88a20.9,20.9,0,0,1,1.71,9.08V115.2h1.56c.44,0,.36-.24.26-.45a1.15,1.15,0,0,1-.12-.47,1.17,1.17,0,0,1,1.18-1.16,1.2,1.2,0,0,1,1.18,1.2c0,.82-.63,1.66-2.1,1.66h-2.58a11,11,0,0,1,.59,3.77,10.86,10.86,0,0,1-.85,4.48,14.12,14.12,0,0,0,4.75-1.53l.13-.08.36.85-.1.06a14.68,14.68,0,0,1-3.93,1.33l-1.78.33a1,1,0,0,1,.31.76,1,1,0,0,1-1.08,1,1,1,0,0,1-.76-1.81l-1.91-.33a14.56,14.56,0,0,1-3.79-1.33l-.1-.06.37-.85.12.08a14.49,14.49,0,0,0,4.85,1.55,9.68,9.68,0,0,1-.93-4.5,11,11,0,0,1,.59-3.77h-2.58c-1.38,0-2-.86-2-1.66A1.21,1.21,0,0,1,180.68,113.12Z" transform="translate(-77.84 -74.99)"/><path class="cls-1" d="M176.61,119.92a.66.66,0,0,1,0,.15,4,4,0,0,0-.64-.22,4.12,4.12,0,0,1-1.15-1.82,5,5,0,0,1-.25-1.54,6.5,6.5,0,0,1,.28-1.38,6.45,6.45,0,0,1,1.4,1.6A5.91,5.91,0,0,0,176.61,119.92Z" transform="translate(-77.84 -74.99)"/><path class="cls-1" d="M173.88,98.61a6.07,6.07,0,0,0-3.19,1h-.12a4.93,4.93,0,0,0,.14-.73,4.52,4.52,0,0,1,1.61-1.44,5.15,5.15,0,0,1,2.9-.51A5.07,5.07,0,0,1,173.88,98.61Z" transform="translate(-77.84 -74.99)"/><path class="cls-1" d="M173.75,117.48a1.34,1.34,0,0,1-.06.12,6.49,6.49,0,0,0-.62-.39,4.56,4.56,0,0,1-.75-2c0-.14,0-.26,0-.39a5.15,5.15,0,0,1,.72-2.46,5,5,0,0,1,1.08,1.92A5.83,5.83,0,0,0,173.75,117.48Z" transform="translate(-77.84 -74.99)"/><path class="cls-1" d="M170.59,111.8a5,5,0,0,1,1.39-2.61,4.89,4.89,0,0,1,.58,2.07,6.29,6.29,0,0,0-1.14,3.09l-.09.13c-.16-.19-.33-.36-.5-.53a4.53,4.53,0,0,1-.29-1.49A5.14,5.14,0,0,1,170.59,111.8Z" transform="translate(-77.84 -74.99)"/><path class="cls-1" d="M169.91,110.8l-.12.09c-.11-.23-.25-.45-.38-.67a1.17,1.17,0,0,1,0-.27,4.56,4.56,0,0,1,2.31-4,6.91,6.91,0,0,1,.19,1.12,4.27,4.27,0,0,1-.12,1A6.56,6.56,0,0,0,169.91,110.8Z" transform="translate(-77.84 -74.99)"/><path class="cls-1" d="M170.62,100.72a4.84,4.84,0,0,1,2.75-1.1,5.45,5.45,0,0,1-1,1.93,6.5,6.5,0,0,0-2.84,1.63.76.76,0,0,0-.16,0c0-.23,0-.46,0-.68A4.05,4.05,0,0,1,170.62,100.72Z" transform="translate(-77.84 -74.99)"/><path class="cls-1" d="M169.73,104.36a5.27,5.27,0,0,1,2.45-1.72,4.82,4.82,0,0,1-.49,2.15,6.42,6.42,0,0,0-2.41,2.23l-.13.06a6.44,6.44,0,0,0-.2-.72A4.23,4.23,0,0,1,169.73,104.36Z" transform="translate(-77.84 -74.99)"/><path class="cls-1" d="M169.46,113a5.63,5.63,0,0,0-1.4-.47,4.61,4.61,0,0,1-1.17-.94,5.15,5.15,0,0,1-1.16-2.85,5.38,5.38,0,0,1,2.69,1.51A5.67,5.67,0,0,1,169.46,113Z" transform="translate(-77.84 -74.99)"/><path class="cls-1" d="M169.76,114.21h0a5.24,5.24,0,0,1,1.75,2.37,5.9,5.9,0,0,0-1.63-.13,4.62,4.62,0,0,1-1.24-.61,5.15,5.15,0,0,1-1.78-2.58A5,5,0,0,1,169.76,114.21Z" transform="translate(-77.84 -74.99)"/><path class="cls-1" d="M172.09,117.71h0a5.43,5.43,0,0,1,2.25,1.9,6,6,0,0,0-1.57.24,4.25,4.25,0,0,1-1.45-.33,4.73,4.73,0,0,1-2.3-2A5.18,5.18,0,0,1,172.09,117.71Z" transform="translate(-77.84 -74.99)"/><path class="cls-1" d="M175.09,120.56h0a5.24,5.24,0,0,1,2.73,1.44,5.35,5.35,0,0,1-3,.52,5.15,5.15,0,0,1-2.73-1.43A5.19,5.19,0,0,1,175.09,120.56Z" transform="translate(-77.84 -74.99)"/><path class="cls-1" d="M177.78,120.24a4.85,4.85,0,0,1-.73-2.59c0-.1,0-.19,0-.28a5.23,5.23,0,0,1,2.36,1.86h0a5,5,0,0,1,.74,2.67c0,.08,0,.15,0,.23A4.76,4.76,0,0,1,177.78,120.24Z" transform="translate(-77.84 -74.99)"/><path class="cls-1" d="M176.09,92.24a5.61,5.61,0,0,0,.41-1.15c.1-.09.21-.19.33-.28a5.2,5.2,0,0,1,3-.92A5.11,5.11,0,0,1,178,92.43a5.24,5.24,0,0,1-2.64.89,6.52,6.52,0,0,0,.73-1.07Z" transform="translate(-77.84 -74.99)"/><path class="cls-1" d="M173.53,91a5.25,5.25,0,0,1,2.16-2.17,4.46,4.46,0,0,1-.42,3,4.78,4.78,0,0,1-2,2.08,6.18,6.18,0,0,0-.14-1.66A4.73,4.73,0,0,1,173.53,91Z" transform="translate(-77.84 -74.99)"/><path class="cls-1" d="M172.88,95.53a4.46,4.46,0,0,1,1.91-1,5,5,0,0,1,2.93.22A5.93,5.93,0,0,1,176,96.05a6,6,0,0,0-3.23.2l-.14,0A5.79,5.79,0,0,0,172.88,95.53Z" transform="translate(-77.84 -74.99)"/><path class="cls-1" d="M170.26,94.21a5,5,0,0,1,1.67-2.61,5.49,5.49,0,0,1,.42,2,4.21,4.21,0,0,1-.13,1.11,5.24,5.24,0,0,1-1.54,2.49,6.33,6.33,0,0,0-.53-1.59c0-.09,0-.22,0-.31A4.88,4.88,0,0,1,170.26,94.21Z" transform="translate(-77.84 -74.99)"/><path class="cls-1" d="M167.93,98.12a5.53,5.53,0,0,1,.95-2.91,5.44,5.44,0,0,1,1,2.89v0a5.33,5.33,0,0,1-.88,2.77,5.38,5.38,0,0,0-.78-1.34,4.12,4.12,0,0,1-.27-1.43Z" transform="translate(-77.84 -74.99)"/><path class="cls-1" d="M166.76,99.42a5.37,5.37,0,0,1,1.71,2.6,4.76,4.76,0,0,1,.14,1.18,5.33,5.33,0,0,1-.36,1.78,5.13,5.13,0,0,0-1.15-1.13,4.37,4.37,0,0,1-.6-1.34,4.56,4.56,0,0,1-.15-1.16A5.82,5.82,0,0,1,166.76,99.42Z" transform="translate(-77.84 -74.99)"/><path class="cls-1" d="M165.68,104a5.09,5.09,0,0,1,2.27,2.15,4.89,4.89,0,0,1,.56,2.33c0,.18,0,.38-.06.57a5.76,5.76,0,0,0-1.4-.85,4.77,4.77,0,0,1-.89-1.17,4.69,4.69,0,0,1-.57-2.32A4.31,4.31,0,0,1,165.68,104Z" transform="translate(-77.84 -74.99)"/><path d="M186.94,95.37a20.36,20.36,0,0,0-1.23-7.48V114h1.23Z" transform="translate(-77.84 -74.99)"/><path class="cls-1" d="M137.81,116.72a20.25,20.25,0,0,0,6.48.93V90.25a21.65,21.65,0,0,1-6.8-1,19.94,19.94,0,0,0-5.36-.85h0a6.33,6.33,0,0,0-4.29,1.41V117a8,8,0,0,1,4.24-1.15A20.91,20.91,0,0,1,137.81,116.72Z" transform="translate(-77.84 -74.99)"/><path class="cls-1" d="M122.33,115.83a7.89,7.89,0,0,1,4.23,1.16V89.83a6.19,6.19,0,0,0-4.28-1.41,19.7,19.7,0,0,0-5.36.85,21.65,21.65,0,0,1-6.78,1v27.4a20.33,20.33,0,0,0,6.46-.93A20.74,20.74,0,0,1,122.33,115.83Z" transform="translate(-77.84 -74.99)"/><path class="cls-1" d="M147.73,90.82H146l.15.61a.54.54,0,0,1,0,.19v28.2l-17.48,0c-.32.54-.7.63-1.5.63s-1.07-.09-1.38-.63l-17.57,0V91.62a.65.65,0,0,1,0-.2l.15-.6H106V122h18.84a2.58,2.58,0,0,0,2.31,1.36,2.62,2.62,0,0,0,2.38-1.36H148.4V90.82Z" transform="translate(-77.84 -74.99)"/><path d="M132.08,95a9.85,9.85,0,0,0-2.64.43v1.4a8.26,8.26,0,0,1,2.69-.5,20.66,20.66,0,0,1,5.33.89,28.21,28.21,0,0,0,5.1,1V96.89a26.75,26.75,0,0,1-4.76-1A21.86,21.86,0,0,0,132.08,95Z" transform="translate(-77.84 -74.99)"/><path d="M132.08,110.9a9.86,9.86,0,0,0-2.64.42v1.41a7.56,7.56,0,0,1,2.69-.49,19.78,19.78,0,0,1,5.33.86,27.89,27.89,0,0,0,5.1,1v-1.28a25.18,25.18,0,0,1-4.77-.94A21.73,21.73,0,0,0,132.08,110.9Z" transform="translate(-77.84 -74.99)"/><path d="M132.08,107.71a10.28,10.28,0,0,0-2.64.42v1.41a7.76,7.76,0,0,1,2.69-.5,20.83,20.83,0,0,1,5.35.88,27.83,27.83,0,0,0,5.08,1V109.6a27.37,27.37,0,0,1-4.75-.95A20.69,20.69,0,0,0,132.08,107.71Z" transform="translate(-77.84 -74.99)"/><path d="M132.08,98.18a9.86,9.86,0,0,0-2.64.42V100a8.53,8.53,0,0,1,2.69-.5,20.24,20.24,0,0,1,5.32.89,28,28,0,0,0,5.11,1v-1.29a26.78,26.78,0,0,1-4.78-.94A20.49,20.49,0,0,0,132.08,98.18Z" transform="translate(-77.84 -74.99)"/><path d="M132.08,104.56a9.18,9.18,0,0,0-2.64.38v1.4a7.57,7.57,0,0,1,2.68-.46,20.07,20.07,0,0,1,5.32.88,29.92,29.92,0,0,0,5.12.95v-1.28a28.11,28.11,0,0,1-4.8-.94A21,21,0,0,0,132.08,104.56Z" transform="translate(-77.84 -74.99)"/><path d="M137.8,92.75a21.32,21.32,0,0,0-5.72-.9,9.91,9.91,0,0,0-2.64.39v1.41a8,8,0,0,1,2.69-.5,19.8,19.8,0,0,1,5.33.88,25.83,25.83,0,0,0,5.1,1V93.7A25.89,25.89,0,0,1,137.8,92.75Z" transform="translate(-77.84 -74.99)"/><path d="M116.62,108.66a29.83,29.83,0,0,1-4.79.94v1.29a28.94,28.94,0,0,0,5.12-1,20.35,20.35,0,0,1,5.33-.88,7.55,7.55,0,0,1,2.7.5v-1.41a10.43,10.43,0,0,0-2.65-.42A20.47,20.47,0,0,0,116.62,108.66Z" transform="translate(-77.84 -74.99)"/><path d="M116.66,105.49a30.78,30.78,0,0,1-4.83,1v1.27a31.2,31.2,0,0,0,5.15-.95,19.68,19.68,0,0,1,5.3-.88,7.4,7.4,0,0,1,2.7.47V105a9.29,9.29,0,0,0-2.65-.39A20.77,20.77,0,0,0,116.66,105.49Z" transform="translate(-77.84 -74.99)"/><path d="M132.08,101.36a10.28,10.28,0,0,0-2.64.42v1.4a8.57,8.57,0,0,1,2.69-.49,19.69,19.69,0,0,1,5.35.9,30.63,30.63,0,0,0,5.08.94v-1.28a26.75,26.75,0,0,1-4.76-1A20.94,20.94,0,0,0,132.08,101.36Z" transform="translate(-77.84 -74.99)"/><path d="M116.63,111.84a26.29,26.29,0,0,1-4.8.94v1.29a28.94,28.94,0,0,0,5.12-1,19.48,19.48,0,0,1,5.33-.86,7.64,7.64,0,0,1,2.7.48v-1.4a10,10,0,0,0-2.65-.42A21.46,21.46,0,0,0,116.63,111.84Z" transform="translate(-77.84 -74.99)"/><path d="M116.62,92.75a26,26,0,0,1-4.79,1V95A26.59,26.59,0,0,0,117,94a19.55,19.55,0,0,1,5.33-.88,8,8,0,0,1,2.7.5v-1.4a9.61,9.61,0,0,0-2.63-.4A21,21,0,0,0,116.62,92.75Z" transform="translate(-77.84 -74.99)"/><path d="M116.62,95.94a27.82,27.82,0,0,1-4.79,1v1.29a28.21,28.21,0,0,0,5.12-1,20.39,20.39,0,0,1,5.33-.89,8.07,8.07,0,0,1,2.7.5v-1.4a10,10,0,0,0-2.65-.43A21.53,21.53,0,0,0,116.62,95.94Z" transform="translate(-77.84 -74.99)"/><path d="M116.62,102.3a27.82,27.82,0,0,1-4.79,1v1.27a29.84,29.84,0,0,0,5.12-.94,19.59,19.59,0,0,1,5.33-.89,8.3,8.3,0,0,1,2.7.49v-1.39a10,10,0,0,0-2.63-.43A20.83,20.83,0,0,0,116.62,102.3Z" transform="translate(-77.84 -74.99)"/><path d="M116.66,99.12a27.85,27.85,0,0,1-4.83.94v1.29a28.38,28.38,0,0,0,5.15-1,19.71,19.71,0,0,1,5.3-.89,8.87,8.87,0,0,1,2.7.49V98.6a10,10,0,0,0-2.63-.42A20.08,20.08,0,0,0,116.66,99.12Z" transform="translate(-77.84 -74.99)"/><polygon class="cls-1" points="63.22 112.76 63.16 116.78 59.99 114.3 56.73 116.78 56.65 112.76 52.76 111.76 55.85 109.2 54.2 105.51 58.14 106.33 59.99 102.73 61.75 106.33 65.77 105.51 64.05 109.2 67.14 111.76 63.22 112.76"/><polygon class="cls-1" points="85.25 141.15 81.25 139.64 79.47 143.56 77.73 139.64 73.68 141.15 75.19 137.12 71.31 135.28 75.19 133.52 73.68 129.45 77.73 130.97 79.47 127.02 81.25 130.97 85.25 129.45 83.8 133.52 87.65 135.3 83.8 137.12 85.25 141.15"/><polygon class="cls-1" points="73.57 87.08 77.57 87.92 79.34 84.31 81.19 87.92 85.16 87.08 83.49 90.75 86.58 93.35 82.67 94.32 82.59 98.37 79.34 95.9 76.18 98.37 76.11 94.32 72.2 93.35 75.3 90.75 73.57 87.08"/><polygon class="cls-1" points="89.57 119.75 86.42 118.19 83.36 119.75 83.93 116.3 81.44 113.85 84.88 113.3 86.42 110.22 88.04 113.3 91.43 113.85 89.03 116.3 89.57 119.75"/><polygon class="cls-1" points="102.3 107.08 98.71 107.03 97.01 110.11 95.27 107.03 91.68 107.08 93.53 104.03 91.68 100.97 95.27 101.03 97.01 97.93 98.71 101.03 102.3 100.97 100.46 104.03 102.3 107.08"/><path class="cls-1" d="M157.18,144.42l44.5,39.92a100.7,100.7,0,0,0,6.68-16.19l-51.18-46-51.08,46a97.17,97.17,0,0,0,6.68,16.19Z" transform="translate(-77.84 -74.99)"/><path class="cls-1" d="M226.21,197.81l2.4-14.86-6.88-6.18a61.59,61.59,0,0,0,2-5.89c2.07,1.86,9,8.1,10,9A131.62,131.62,0,0,1,226.21,197.81Z" transform="translate(-77.84 -74.99)"/><path class="cls-1" d="M222.88,202.77c-.67-.61-1.63-1.47-2.72-2.43,0,0,0,0,0-.05,1.56-2.67,3.05-5.38,4.36-8.21Z" transform="translate(-77.84 -74.99)"/><path class="cls-1" d="M80.74,179.86c1-.88,8-7.13,10-9,.63,2.05,1.32,4,2,5.87l-6.9,6.2,2.39,14.82A130.25,130.25,0,0,1,80.74,179.86Z" transform="translate(-77.84 -74.99)"/><path class="cls-1" d="M91.53,202.77l-1.64-10.72c1.31,2.83,2.81,5.57,4.4,8.27Z" transform="translate(-77.84 -74.99)"/><path class="cls-1" d="M216.18,202.31c-12.76,20.32-30.75,35.18-52.07,43l-6.93,2.52c-.69-.29-6.84-2.53-6.84-2.53-21.31-7.8-39.31-22.66-52.08-43a114.91,114.91,0,0,1-9.34-18.7c1.1-1,7.73-7,9.7-8.74a106,106,0,0,0,10,21c11.32,18,27.15,31.19,45.91,38.05l2.68,1,2.76-1c18.76-6.86,34.61-20,45.87-38.05a103.91,103.91,0,0,0,10-21c1.9,1.76,8.58,7.76,9.7,8.74A116.79,116.79,0,0,1,216.18,202.31Z" transform="translate(-77.84 -74.99)"/><path d="M102.35,195.62l2-2.24-.17-.68a15.4,15.4,0,0,1-1.12-1.16c-2.09.38-5.4.9-6.88,1l-.39-.44-.39.22c.21.34.39.69.58,1s.42.83.64,1.24l.38-.23-.17-.6,2.18-.5,1.17,2a18.87,18.87,0,0,1-1.57,1.64l-.43-.5-.41.24c.29.5.59,1,.88,1.51s.54,1,.8,1.48l.42-.24-.2-.6C100.08,198.25,101.39,196.72,102.35,195.62Zm-2.42-2.55,2.79-.58,0,0-1.93,2.13Z" transform="translate(-77.84 -74.99)"/><path d="M112.29,206.09l.38-.29c-.26-.35-.54-.69-.79-1s-.5-.71-.74-1.07l-.41.28.3.62c-1,.83-3.64,2.8-3.64,2.8l0,0,2.14-5.9c-.25-.33-.49-.63-.73-1s-.42-.65-.63-1l-.37.28.27.62a15.24,15.24,0,0,1-1.59,1.24l-1.75,1.26A17.94,17.94,0,0,1,103,204l-.49-.48-.37.27c.26.35.51.69.77,1.06s.47.71.73,1.07l.38-.28-.3-.63c1-.83,2.53-1.91,3.72-2.79h0c-.76,2-1.46,4-2.24,6,.18.21.37.45.53.68a5,5,0,0,1,.44.65c.57-.46,1.32-1,2.17-1.66l1.69-1.23c.64-.45,1.18-.79,1.73-1.11Z" transform="translate(-77.84 -74.99)"/><path d="M112.76,211.9a3.65,3.65,0,0,0-.17,5.31,5,5,0,0,0,3.62,1.74l.13-.87a3.24,3.24,0,0,1-2.12-1,2.64,2.64,0,0,1,.16-3.9,2.31,2.31,0,0,1,3.46.09,3.83,3.83,0,0,1,.84,1.67l-.39.46.35.4a5.27,5.27,0,0,1,1.57-.92,7.06,7.06,0,0,0-1.45-2.26C117,210.67,114.48,210.29,112.76,211.9Z" transform="translate(-77.84 -74.99)"/><path d="M127.06,220.47c-2-1.72-4.36-1.44-5.74.2-1.52,1.88-1.16,4,.85,5.68s4.39,1.44,5.72-.21C129.5,224.28,129.13,222.16,127.06,220.47Zm-.67,4.39c-1,1.22-2.47,1.59-3.56.7s-1-2.37.06-3.59,2.48-1.61,3.56-.7S127.36,223.63,126.39,224.86Z" transform="translate(-77.84 -74.99)"/><path d="M137.65,228.21c-.43-.27-.89-.54-1.33-.8s-.91-.52-1.34-.79-.74-.49-1.11-.73l-.26.41.51.47a16.33,16.33,0,0,1-1,1.77l-1,1.81c-.42.63-.78,1.14-1.18,1.65l-.64-.25-.25.41,1.48.89c.48.29.95.62,1.39.93l.24-.4-.46-.46a11.48,11.48,0,0,1,1-1.79l.37-.57.47.3c.12,1.1.23,2.95.31,4.27a17.93,17.93,0,0,1,2,1.08l.26-.4-.21-.29c-.12-.51-.47-3.15-.58-3.88a2,2,0,0,0,2.6-.62C139.37,230.37,139.38,229.31,137.65,228.21Zm-.52,2c-.47.73-1.2.7-2.1.14a3.15,3.15,0,0,1-.54-.4l.32-.52c.34-.53.64-1,.85-1.24a5.48,5.48,0,0,1,.9.48C137.32,229.14,137.48,229.65,137.13,230.21Z" transform="translate(-77.84 -74.99)"/><path d="M148.53,234l-.55-.45a13.92,13.92,0,0,1-1.59-.27,68,68,0,0,1-4.95,4.9l-.61-.13-.19.44c.37.16.75.3,1.11.47l1.28.6.21-.43-.52-.37,1.46-1.7,2.11,1a20.46,20.46,0,0,1-.29,2.24l-.64-.15-.19.42,1.63.7,1.51.72.19-.43-.5-.38c0-.67.1-2.68.24-4.14Zm-2.15,3.14-1.63-.74,1.91-2.13h0Z" transform="translate(-77.84 -74.99)"/><path d="M169.64,239.71a15,15,0,0,1-.86-1.83l-.84-1.93a20.14,20.14,0,0,1-.74-1.89l.58-.39-.2-.44c-.54.25-1.06.5-1.58.71s-1.06.44-1.6.68l.2.42.68-.15c.31.55.59,1.11.91,1.83l.85,1.94c.32.7.54,1.28.75,1.88l-.57.39.19.43c.54-.24,1.05-.49,1.54-.72s1-.43,1.57-.65l-.2-.44Z" transform="translate(-77.84 -74.99)"/><path d="M182.94,232.48c-.38-.53-.73-1-1.14-1.7l-1-1.83a17.94,17.94,0,0,1-1-1.77l.53-.46-.26-.42c-.43.29-.86.57-1.3.82l-1.34.76c.25,1,1,4.61,1.14,5.38-.83-.57-3.5-2.86-4.18-3.53l-1.29.8-1.34.74.25.4.6-.2.53.86c.5.86,2.1,3.7,2.49,4.5l-.5.46.24.4,1.1-.68c.38-.23.77-.44,1.16-.65l-.25-.41-.65.25c-.38-.51-.73-1-1.14-1.71l-.6-1c-.5-.9-.87-1.54-1.05-1.86l0,0c2.67,2.26,4.14,3.44,4.86,4.08l1-.59-1.27-6.25h0c.21.3.61.94,1.15,1.84l.63,1a11.78,11.78,0,0,1,.91,1.81l-.44.44.21.42c.43-.3.92-.6,1.43-.91s1-.57,1.51-.87l-.24-.4Z" transform="translate(-77.84 -74.99)"/><path d="M190.11,227.17c-.44-.47-.86-.93-1.37-1.54l-1-1.19c-.41-.49-.87-1.16-1.24-1.71a4,4,0,0,1,.57-.65,1.26,1.26,0,0,1,1.94.08,1.23,1.23,0,0,1-.1,1.93,2.75,2.75,0,0,1-.48.31l.36.91a5.94,5.94,0,0,0,.94-.63c1.59-1.27,1.63-2.87.76-3.94s-2-1.09-3.3,0a10.84,10.84,0,0,1-1.08.95c-.44.4-.88.75-1.22,1s-.76.58-1.21.95l.31.37.6-.33c.45.45.87.92,1.37,1.51l1.26,1.65c.5.61.87,1.11,1.23,1.63L188,229l.29.38c.45-.39.88-.76,1.34-1.12s.9-.68,1.59-1.22l-.32-.37Z" transform="translate(-77.84 -74.99)"/><path d="M201.86,216.2a36.68,36.68,0,0,1-3.8-1.62l-2.77-1.32-.6.37c-.25.44-.5.91-.81,1.4,1,1.92,2.46,4.89,3,6.34l-.34.5.35.33c.26-.28.53-.59.82-.86s.67-.67,1-1l-.34-.34-.53.37-1.11-1.94,1.67-1.71a21.09,21.09,0,0,1,2,1l-.36.55.35.34,1.2-1.29,1.21-1.17-.35-.33Zm-5.57,1.43-1.36-2.53v0l2.62,1.26Z" transform="translate(-77.84 -74.99)"/><path d="M210.11,206c-.5.06-3.22.17-4,.2a2,2,0,0,0-.39-2.67c-.73-.6-1.79-.7-3.07.93-.31.42-.63.85-.93,1.27l-.91,1.22-.84,1,.39.28.51-.46c.55.35,1.06.69,1.69,1.17l1.7,1.28a16.18,16.18,0,0,1,1.51,1.31l-.33.62.4.28c.33-.46.68-.93,1-1.39s.72-.88,1.08-1.34l-.39-.28-.5.45a19,19,0,0,1-1.7-1.15l-.47-.42.31-.45c1.08,0,3,.05,4.31.1a15,15,0,0,1,1.26-1.88l-.38-.28Zm-5.5,1.25a5.47,5.47,0,0,1-.46.48l-.49-.36c-.49-.36-.91-.72-1.17-.93a8,8,0,0,1,.56-.84c.54-.7,1.08-.83,1.59-.42S205.22,206.43,204.61,207.25Z" transform="translate(-77.84 -74.99)"/><path d="M214.58,193c-2.16-1.26-4.12-.56-5.48,1.74s-.7,4.55,1.15,5.63c2.05,1.24,4.11.55,5.48-1.75S216.44,194,214.58,193Zm.22,5.1c-.71,1.21-2.18,1.35-3.52.52s-2-2.15-1.28-3.36,2.14-1.32,3.53-.52S215.53,196.86,214.8,198.05Z" transform="translate(-77.84 -74.99)"/><path d="M157.18,238.78a1.62,1.62,0,0,0-1.56,1.63,1.66,1.66,0,0,0,1.56,1.69,1.7,1.7,0,0,0,1.69-1.69A1.67,1.67,0,0,0,157.18,238.78Z" transform="translate(-77.84 -74.99)"/><path d="M96.58,187a1.67,1.67,0,0,0,1.64-1.63,1.63,1.63,0,1,0-3.26,0A1.65,1.65,0,0,0,96.58,187Z" transform="translate(-77.84 -74.99)"/><path d="M218.13,187a1.67,1.67,0,0,0,1.66-1.63,1.64,1.64,0,1,0-1.66,1.63Z" transform="translate(-77.84 -74.99)"/><path d="M875.14,195l58.6-21.58A47.94,47.94,0,0,0,937,155.84c0-25.11-18.33-38.68-36.65-38.68-11.71,0-20,3.9-26.64,13.23l-.34-.34c1-19,8-36.14,22.74-36.14,7.63,0,14.08,5.77,15.94,14.77h22.91c-2.71-20.7-17.65-32.92-38.51-32.92-34.62,0-46.66,34.27-46.66,62.1C849.75,164.86,857.36,186.19,875.14,195Zm19.4-59.64c12.72,0,18.32,11.37,18.32,22.4,0,11.2-7,21.72-18.15,21.72-11.71,0-19.17-10.35-19.17-22.06C875.54,144.31,883,135.31,894.54,135.31Z" transform="translate(-77.84 -74.99)"/><path d="M932.86,139.11a42.72,42.72,0,0,1,3.32,17,50.88,50.88,0,0,1-.52,7.27,69.79,69.79,0,0,0,2.54,8.34l21.54-7.93c-2.77-9.14-2.82-20.54-2.82-28.25,0-12,0-40.72,19.17-40.72,18.33,0,19.85,24.09,19.85,40.72,0,4.44,0,9.75-.51,15.11l24.5-9c.07-1.77.11-3.56.11-5.41C1020,96,1004.6,75,976.26,75c-28.5,0-43.43,21.21-43.43,61.25C932.83,137.21,932.84,138.16,932.86,139.11Z" transform="translate(-77.84 -74.99)"/><path class="cls-2" d="M966.37,160.43l6.44,15.27,6.43-15.27H982l-7.91,18.35v12.27h-2.63V178.78l-7.91-18.35Z" transform="translate(-77.84 -74.99)"/><path class="cls-2" d="M998.76,160.43v2.32H986.87V173.9H998v2.31H986.87v12.52h12.26v2.32H984.25V160.43Z" transform="translate(-77.84 -74.99)"/><path class="cls-2" d="M1012.09,160.43l8.65,30.62H1018l-2.38-8.92h-10.25l-2.38,8.92h-2.78l8.65-30.62Zm-6.19,19.38h9.1l-4.51-17.23h-.08Z" transform="translate(-77.84 -74.99)"/><path class="cls-2" d="M1031.93,160.43c4.47,0,7.43,2.66,7.43,7.68,0,4.2-1.77,7.07-5.29,7.76V176h0c5,.48,5,4.59,5,10.51,0,2.36.45,3.69,1.23,4.59h-3.07c-.5-.78-.82-2.62-.82-5.19,0-3.73-.37-6.13-1.19-7.2s-2.09-1.59-4.47-1.59h-5.17v14H1023V160.43Zm-1.76,14.32c4.18,0,6.56-2,6.56-6,0-4.29-2.13-6-6.31-6h-4.76v12Z" transform="translate(-77.84 -74.99)"/><path class="cls-2" d="M1059,168.28h-2.63c0-4-1.8-6-5.24-6a5.2,5.2,0,0,0-5.54,5.48c0,4.59,3.69,5.71,7.46,6.95a12.82,12.82,0,0,1,4.68,2.53,7.06,7.06,0,0,1,2,5.44c0,5.66-3.24,8.92-8.86,8.92s-8.53-3-8.53-9.26v-.73h2.63v1c0,4.33,2,6.68,5.82,6.68,4,0,6.31-2.22,6.31-6.21s-2.58-5.32-6.76-6.65c-3.2-1-4.88-2-5.91-3.34a7.84,7.84,0,0,1-1.51-5c0-4.84,3.11-8.1,8.07-8.1C1056.41,159.92,1059,162.66,1059,168.28Z" transform="translate(-77.84 -74.99)"/><path class="cls-2" d="M1089.34,175.74c0,10.59-3.16,15.82-9.35,15.82s-9.35-5.19-9.35-15.82,3.12-15.82,9.35-15.82S1089.34,165.15,1089.34,175.74Zm-9.35,13.5c4.55,0,6.73-4.28,6.73-13.5s-2.13-13.5-6.77-13.5-6.68,4.45-6.68,13.5C1073.27,185,1075.48,189.24,1080,189.24Z" transform="translate(-77.84 -74.99)"/><path class="cls-2" d="M1108.25,160.43v2.32h-11.9V173.9h11.12v2.31h-11.12v14.84h-2.62V160.43Z" transform="translate(-77.84 -74.99)"/><path class="cls-2" d="M974.65,198.2l4.18,21.6h.08l4.23-21.6h8.73v30.61h-5.41V204.37h-.08l-5.21,24.44h-4.59l-5.21-24.44h-.08v24.44h-5.41V198.2Z" transform="translate(-77.84 -74.99)"/><path class="cls-2" d="M1009.92,198.2l7.74,30.61h-6.15l-1.35-6.48h-7.79l-1.35,6.48h-6.15l7.75-30.61Zm-3.7,5.31-2.82,13.76h5.74l-2.83-13.76Z" transform="translate(-77.84 -74.99)"/><path class="cls-2" d="M1026.44,198.2v12.26h.08L1034,198.2h6.4l-8,13.12,8.85,17.49h-6.64l-6-12.56-2.17,3.47v9.09h-5.9V198.2Z" transform="translate(-77.84 -74.99)"/><path class="cls-2" d="M1049.57,198.2v30.61h-5.91V198.2Z" transform="translate(-77.84 -74.99)"/><path class="cls-2" d="M1061.58,198.2l7.14,21h.08v-21h5.41v30.61h-6.72l-7.22-21.44h-.08v21.44h-5.41V198.2Z" transform="translate(-77.84 -74.99)"/><path class="cls-2" d="M1097.79,207.29h-5.66c0-2.32-.9-5.15-3.36-5.15s-4,2.1-4,10.76c0,9.26,1.31,12,4.06,12,1.43,0,3.65-1.54,3.65-4.93v-3.08h-3.9V212.3h9.56v16.51h-4.35V226h-.08a6.5,6.5,0,0,1-6.15,3.43c-6.73,0-8.69-4.59-8.69-16.21,0-9.77,2-15.6,9.84-15.6C1094.84,197.6,1097.79,200.77,1097.79,207.29Z" transform="translate(-77.84 -74.99)"/><path class="cls-2" d="M984.16,246v.3h-5.9c0-3.73-.49-6.39-3.53-6.39-3.2,0-3.69,4-3.69,11.71,0,8.66.94,11,3.77,11,2.63,0,3.7-2.14,3.7-7.76h5.9c0,7-1.76,12.31-9.31,12.31-8.36,0-10-5.62-10-15.91,0-10,1.51-15.9,10-15.9C982,235.36,984.16,239.52,984.16,246Z" transform="translate(-77.84 -74.99)"/><path class="cls-2" d="M994.5,236v11.7h6.89V236h5.9v30.61h-5.9V253H994.5v13.59h-5.91V236Z" transform="translate(-77.84 -74.99)"/><path class="cls-2" d="M1025.21,236l7.75,30.61h-6.15l-1.35-6.48h-7.79l-1.36,6.48h-6.15l7.75-30.61Zm-3.69,5.31L1018.69,255h5.74l-2.83-13.77Z" transform="translate(-77.84 -74.99)"/><path class="cls-2" d="M1042.64,236l7.13,21h.08V236h5.42v30.61h-6.73l-7.21-21.44h-.09v21.44h-5.41V236Z" transform="translate(-77.84 -74.99)"/><path class="cls-2" d="M1078.85,245.05h-5.66c0-2.32-.9-5.15-3.37-5.15s-4,2.1-4,10.76c0,9.26,1.31,12,4.06,12,1.43,0,3.64-1.54,3.64-4.93v-3.08h-3.89v-4.55h9.55v16.51h-4.34v-2.83h-.09a6.48,6.48,0,0,1-6.15,3.43c-6.72,0-8.69-4.59-8.69-16.21,0-9.77,2-15.6,9.84-15.6C1075.89,235.36,1078.85,238.53,1078.85,245.05Z" transform="translate(-77.84 -74.99)"/><path class="cls-2" d="M1100.17,236V241h-10.46v7.2h9.84v5.06h-9.84v8.23h10.87v5.06h-16.77V236Z" transform="translate(-77.84 -74.99)"/></svg>